<svg width="905" height="269" viewBox="0 0 905 269" fill="none" xmlns="http://www.w3.org/2000/svg">
<g opacity="0.2">
<path d="M243.946 5.83289V263.167H164.586V41.1735H187.358L57.6222 183.565L57.2772 159.204H282.935V217.19H0V161.263L142.503 5.83289H243.946Z" fill="#111111"/>
<path d="M456.452 269C426.548 269 400.44 263.396 378.127 252.188C356.044 240.979 338.907 225.31 326.715 205.181C314.524 185.052 308.428 161.491 308.428 134.5C308.428 107.508 314.524 83.9481 326.715 63.8189C338.907 43.6896 356.044 28.0208 378.127 16.8125C400.44 5.60416 426.548 0 456.452 0C486.125 0 512.004 5.60416 534.086 16.8125C556.399 28.0208 573.651 43.6896 585.843 63.8189C598.264 83.9481 604.475 107.508 604.475 134.5C604.475 161.491 598.264 185.052 585.843 205.181C573.651 225.31 556.399 240.979 534.086 252.188C512.004 263.396 486.125 269 456.452 269ZM456.452 204.495C478.074 204.495 494.751 198.433 506.483 186.31C518.444 173.958 524.425 156.688 524.425 134.5C524.425 112.083 518.444 94.8133 506.483 82.69C494.751 70.5667 478.074 64.5051 456.452 64.5051C435.059 64.5051 418.267 70.5667 406.075 82.69C394.114 94.8133 388.133 112.083 388.133 134.5C388.133 156.688 394.114 173.958 406.075 186.31C418.267 198.433 435.059 204.495 456.452 204.495Z" fill="#111111"/>
<path d="M870.01 5.83289V263.167H790.65V41.1735H813.423L683.687 183.565L683.342 159.204H909V217.19H626.065V161.263L768.567 5.83289H870.01Z" fill="#111111"/>
</g>
</svg>
