<svg width="1662" height="65" viewBox="0 0 1662 65" fill="none" xmlns="http://www.w3.org/2000/svg">
<path d="M0 0H48L78 65H30L0 0Z" fill="black"/>
<path d="M88 0H136L166 65H118L88 0Z" fill="black"/>
<path d="M176 0H224L254 65H206L176 0Z" fill="black"/>
<path d="M264 0H312L342 65H294L264 0Z" fill="black"/>
<path d="M352 0H400L430 65H382L352 0Z" fill="black"/>
<path d="M440 0H488L518 65H470L440 0Z" fill="black"/>
<path d="M528 0H576L606 65H558L528 0Z" fill="black"/>
<path d="M616 0H664L694 65H646L616 0Z" fill="black"/>
<path d="M704 0H752L782 65H734L704 0Z" fill="black"/>
<path d="M792 0H840L870 65H822L792 0Z" fill="black"/>
<path d="M880 0H928L958 65H910L880 0Z" fill="black"/>
<path d="M968 0H1016L1046 65H998L968 0Z" fill="black"/>
<path d="M1056 0H1104L1134 65H1086L1056 0Z" fill="black"/>
<path d="M1144 0H1192L1222 65H1174L1144 0Z" fill="black"/>
<path d="M1232 0H1280L1310 65H1262L1232 0Z" fill="black"/>
<path d="M1320 0H1368L1398 65H1350L1320 0Z" fill="black"/>
<path d="M1408 0H1456L1486 65H1438L1408 0Z" fill="black"/>
<path d="M1496 0H1544L1574 65H1526L1496 0Z" fill="black"/>
<path d="M1584 0H1632L1662 65H1614L1584 0Z" fill="black"/>
</svg>
