<svg width="41" height="36" viewBox="0 0 41 36" fill="none" xmlns="http://www.w3.org/2000/svg">
<path fill-rule="evenodd" clip-rule="evenodd" d="M34.4182 33.5109V33.5067L34.4545 33.4183L40.5 2.31463V2.21589C40.5 1.44035 40.2178 0.763561 39.609 0.358309C39.0748 0.00242668 38.46 -0.0222586 38.0286 0.0106553C37.6271 0.0480386 37.2309 0.130831 36.8473 0.25751C36.6836 0.31081 36.5221 0.371207 36.3635 0.438536L36.3373 0.448822L2.63225 13.9415L2.62217 13.9456C2.51891 13.9791 2.41847 14.0211 2.32181 14.0711C2.08224 14.1812 1.85228 14.312 1.63441 14.4619C1.201 14.7664 0.376518 15.4823 0.515611 16.6178C0.630515 17.5599 1.26551 18.1565 1.69488 18.4671C1.94776 18.6493 2.22035 18.8012 2.50727 18.9197L2.57178 18.9485L2.59194 18.9547L2.60605 18.9608L8.50443 20.9871C8.48292 21.3656 8.52122 21.7462 8.61933 22.1288L11.5725 33.5643C11.7339 34.1877 12.0825 34.7438 12.5694 35.1546C13.0564 35.5654 13.6572 35.8102 14.2874 35.8547C14.9177 35.8992 15.5458 35.7411 16.0835 35.4026C16.6213 35.0641 17.0416 34.5623 17.2855 33.9675L21.8977 28.9358L29.818 35.1319L29.9309 35.1812C30.6506 35.5022 31.3218 35.603 31.9367 35.5186C32.5515 35.4322 33.0393 35.1689 33.4062 34.8706C33.8307 34.5196 34.1689 34.0723 34.394 33.5643L34.4101 33.5294L34.4162 33.517L34.4182 33.5109ZM11.5423 21.343C11.5096 21.2161 11.5174 21.0819 11.5645 20.9598C11.6116 20.8377 11.6956 20.7342 11.8044 20.6641L31.8036 7.70429C31.8036 7.70429 32.9809 6.97401 32.9385 7.70429C32.9385 7.70429 33.1482 7.83183 32.5172 8.43045C31.9205 9.00027 18.2632 22.4559 16.8803 23.8177C16.8052 23.8953 16.7517 23.9919 16.7251 24.0975L14.4955 32.7785L11.5423 21.343Z" fill="#111111"/>
</svg>
